<mxfile host="app.diagrams.net" modified="2023-07-08T14:40:22.634Z" agent="Mozilla/5.0 (Macintosh; Intel Mac OS X 10_15_7) AppleWebKit/537.36 (KHTML, like Gecko) Chrome/114.0.0.0 Safari/537.36" etag="5InEOS3yZJ48fPtaQKyy" version="21.6.1" type="github">
  <diagram name="第 1 页" id="37_IQZh8YB75wOJnBMYR">
    <mxGraphModel dx="920" dy="449" grid="1" gridSize="10" guides="1" tooltips="1" connect="1" arrows="1" fold="1" page="1" pageScale="1" pageWidth="827" pageHeight="1169" math="0" shadow="0">
      <root>
        <mxCell id="0" />
        <mxCell id="1" parent="0" />
        <mxCell id="ile1-UWcYRMQK7S5r9Bu-3" value="" style="edgeStyle=orthogonalEdgeStyle;rounded=0;orthogonalLoop=1;jettySize=auto;html=1;" edge="1" parent="1" source="ile1-UWcYRMQK7S5r9Bu-1" target="ile1-UWcYRMQK7S5r9Bu-2">
          <mxGeometry relative="1" as="geometry" />
        </mxCell>
        <mxCell id="ile1-UWcYRMQK7S5r9Bu-1" value="1" style="ellipse;whiteSpace=wrap;html=1;aspect=fixed;" vertex="1" parent="1">
          <mxGeometry x="340" y="90" width="30" height="30" as="geometry" />
        </mxCell>
        <mxCell id="ile1-UWcYRMQK7S5r9Bu-5" value="" style="edgeStyle=orthogonalEdgeStyle;rounded=0;orthogonalLoop=1;jettySize=auto;html=1;" edge="1" parent="1" source="ile1-UWcYRMQK7S5r9Bu-2" target="ile1-UWcYRMQK7S5r9Bu-4">
          <mxGeometry relative="1" as="geometry" />
        </mxCell>
        <mxCell id="ile1-UWcYRMQK7S5r9Bu-7" value="" style="edgeStyle=orthogonalEdgeStyle;rounded=0;orthogonalLoop=1;jettySize=auto;html=1;" edge="1" parent="1" source="ile1-UWcYRMQK7S5r9Bu-2" target="ile1-UWcYRMQK7S5r9Bu-6">
          <mxGeometry relative="1" as="geometry" />
        </mxCell>
        <mxCell id="ile1-UWcYRMQK7S5r9Bu-2" value="2" style="ellipse;whiteSpace=wrap;html=1;aspect=fixed;" vertex="1" parent="1">
          <mxGeometry x="340" y="140" width="30" height="30" as="geometry" />
        </mxCell>
        <mxCell id="ile1-UWcYRMQK7S5r9Bu-9" value="" style="rounded=0;orthogonalLoop=1;jettySize=auto;html=1;" edge="1" parent="1" source="ile1-UWcYRMQK7S5r9Bu-4" target="ile1-UWcYRMQK7S5r9Bu-8">
          <mxGeometry relative="1" as="geometry" />
        </mxCell>
        <mxCell id="ile1-UWcYRMQK7S5r9Bu-4" value="3" style="ellipse;whiteSpace=wrap;html=1;aspect=fixed;" vertex="1" parent="1">
          <mxGeometry x="280" y="200" width="30" height="30" as="geometry" />
        </mxCell>
        <mxCell id="ile1-UWcYRMQK7S5r9Bu-10" style="rounded=0;orthogonalLoop=1;jettySize=auto;html=1;" edge="1" parent="1" source="ile1-UWcYRMQK7S5r9Bu-6" target="ile1-UWcYRMQK7S5r9Bu-8">
          <mxGeometry relative="1" as="geometry" />
        </mxCell>
        <mxCell id="ile1-UWcYRMQK7S5r9Bu-6" value="4" style="ellipse;whiteSpace=wrap;html=1;aspect=fixed;" vertex="1" parent="1">
          <mxGeometry x="399" y="200" width="30" height="30" as="geometry" />
        </mxCell>
        <mxCell id="ile1-UWcYRMQK7S5r9Bu-12" value="" style="edgeStyle=orthogonalEdgeStyle;rounded=0;orthogonalLoop=1;jettySize=auto;html=1;" edge="1" parent="1" source="ile1-UWcYRMQK7S5r9Bu-8" target="ile1-UWcYRMQK7S5r9Bu-11">
          <mxGeometry relative="1" as="geometry" />
        </mxCell>
        <mxCell id="ile1-UWcYRMQK7S5r9Bu-8" value="5" style="ellipse;whiteSpace=wrap;html=1;aspect=fixed;" vertex="1" parent="1">
          <mxGeometry x="340" y="240" width="30" height="30" as="geometry" />
        </mxCell>
        <mxCell id="ile1-UWcYRMQK7S5r9Bu-14" value="" style="edgeStyle=orthogonalEdgeStyle;rounded=0;orthogonalLoop=1;jettySize=auto;html=1;" edge="1" parent="1" source="ile1-UWcYRMQK7S5r9Bu-11" target="ile1-UWcYRMQK7S5r9Bu-13">
          <mxGeometry relative="1" as="geometry" />
        </mxCell>
        <mxCell id="ile1-UWcYRMQK7S5r9Bu-16" value="" style="edgeStyle=orthogonalEdgeStyle;rounded=0;orthogonalLoop=1;jettySize=auto;html=1;" edge="1" parent="1" source="ile1-UWcYRMQK7S5r9Bu-11" target="ile1-UWcYRMQK7S5r9Bu-15">
          <mxGeometry relative="1" as="geometry" />
        </mxCell>
        <mxCell id="ile1-UWcYRMQK7S5r9Bu-11" value="6" style="ellipse;whiteSpace=wrap;html=1;aspect=fixed;" vertex="1" parent="1">
          <mxGeometry x="340" y="300" width="30" height="30" as="geometry" />
        </mxCell>
        <mxCell id="ile1-UWcYRMQK7S5r9Bu-18" value="" style="rounded=0;orthogonalLoop=1;jettySize=auto;html=1;" edge="1" parent="1" source="ile1-UWcYRMQK7S5r9Bu-13" target="ile1-UWcYRMQK7S5r9Bu-17">
          <mxGeometry relative="1" as="geometry" />
        </mxCell>
        <mxCell id="ile1-UWcYRMQK7S5r9Bu-13" value="7" style="ellipse;whiteSpace=wrap;html=1;aspect=fixed;" vertex="1" parent="1">
          <mxGeometry x="270" y="350" width="30" height="30" as="geometry" />
        </mxCell>
        <mxCell id="ile1-UWcYRMQK7S5r9Bu-19" style="rounded=0;orthogonalLoop=1;jettySize=auto;html=1;entryX=1;entryY=0.5;entryDx=0;entryDy=0;" edge="1" parent="1" source="ile1-UWcYRMQK7S5r9Bu-15" target="ile1-UWcYRMQK7S5r9Bu-17">
          <mxGeometry relative="1" as="geometry" />
        </mxCell>
        <mxCell id="ile1-UWcYRMQK7S5r9Bu-15" value="8" style="ellipse;whiteSpace=wrap;html=1;aspect=fixed;" vertex="1" parent="1">
          <mxGeometry x="399" y="350" width="30" height="30" as="geometry" />
        </mxCell>
        <mxCell id="ile1-UWcYRMQK7S5r9Bu-21" value="" style="edgeStyle=orthogonalEdgeStyle;rounded=0;orthogonalLoop=1;jettySize=auto;html=1;" edge="1" parent="1" source="ile1-UWcYRMQK7S5r9Bu-17" target="ile1-UWcYRMQK7S5r9Bu-20">
          <mxGeometry relative="1" as="geometry" />
        </mxCell>
        <mxCell id="ile1-UWcYRMQK7S5r9Bu-17" value="9" style="ellipse;whiteSpace=wrap;html=1;aspect=fixed;" vertex="1" parent="1">
          <mxGeometry x="340" y="390" width="30" height="30" as="geometry" />
        </mxCell>
        <mxCell id="ile1-UWcYRMQK7S5r9Bu-20" value="10" style="ellipse;whiteSpace=wrap;html=1;aspect=fixed;" vertex="1" parent="1">
          <mxGeometry x="340" y="460" width="30" height="30" as="geometry" />
        </mxCell>
        <mxCell id="ile1-UWcYRMQK7S5r9Bu-22" value="开始网关" style="text;html=1;strokeColor=none;fillColor=none;align=center;verticalAlign=middle;whiteSpace=wrap;rounded=0;" vertex="1" parent="1">
          <mxGeometry x="450" y="150" width="60" height="30" as="geometry" />
        </mxCell>
        <mxCell id="ile1-UWcYRMQK7S5r9Bu-23" value="结束网关" style="text;html=1;strokeColor=none;fillColor=none;align=center;verticalAlign=middle;whiteSpace=wrap;rounded=0;" vertex="1" parent="1">
          <mxGeometry x="450" y="230" width="60" height="30" as="geometry" />
        </mxCell>
        <mxCell id="ile1-UWcYRMQK7S5r9Bu-24" value="开始网关" style="text;html=1;strokeColor=none;fillColor=none;align=center;verticalAlign=middle;whiteSpace=wrap;rounded=0;" vertex="1" parent="1">
          <mxGeometry x="450" y="300" width="60" height="30" as="geometry" />
        </mxCell>
        <mxCell id="ile1-UWcYRMQK7S5r9Bu-25" value="结束网关" style="text;html=1;strokeColor=none;fillColor=none;align=center;verticalAlign=middle;whiteSpace=wrap;rounded=0;" vertex="1" parent="1">
          <mxGeometry x="450" y="390" width="60" height="30" as="geometry" />
        </mxCell>
        <mxCell id="ile1-UWcYRMQK7S5r9Bu-26" value="2次" style="text;html=1;strokeColor=none;fillColor=none;align=center;verticalAlign=middle;whiteSpace=wrap;rounded=0;" vertex="1" parent="1">
          <mxGeometry x="270" y="250" width="60" height="30" as="geometry" />
        </mxCell>
        <mxCell id="ile1-UWcYRMQK7S5r9Bu-27" value="2次" style="text;html=1;strokeColor=none;fillColor=none;align=center;verticalAlign=middle;whiteSpace=wrap;rounded=0;" vertex="1" parent="1">
          <mxGeometry x="200" y="340" width="60" height="30" as="geometry" />
        </mxCell>
        <mxCell id="ile1-UWcYRMQK7S5r9Bu-28" value="2次" style="text;html=1;strokeColor=none;fillColor=none;align=center;verticalAlign=middle;whiteSpace=wrap;rounded=0;" vertex="1" parent="1">
          <mxGeometry x="450" y="350" width="60" height="30" as="geometry" />
        </mxCell>
        <mxCell id="ile1-UWcYRMQK7S5r9Bu-29" value="4次" style="text;html=1;strokeColor=none;fillColor=none;align=center;verticalAlign=middle;whiteSpace=wrap;rounded=0;" vertex="1" parent="1">
          <mxGeometry x="270" y="400" width="60" height="30" as="geometry" />
        </mxCell>
        <mxCell id="ile1-UWcYRMQK7S5r9Bu-30" value="4次" style="text;html=1;strokeColor=none;fillColor=none;align=center;verticalAlign=middle;whiteSpace=wrap;rounded=0;" vertex="1" parent="1">
          <mxGeometry x="270" y="460" width="60" height="30" as="geometry" />
        </mxCell>
        <mxCell id="ile1-UWcYRMQK7S5r9Bu-31" value="多个网关可能指数级重复" style="text;html=1;strokeColor=none;fillColor=none;align=center;verticalAlign=middle;whiteSpace=wrap;rounded=0;" vertex="1" parent="1">
          <mxGeometry x="289" y="50" width="140" height="30" as="geometry" />
        </mxCell>
      </root>
    </mxGraphModel>
  </diagram>
</mxfile>
